#!OML:ASF H:\Pregnant\Project 1\Capture day 1\Session 1\femalepreg.ASF
:FULLY-SPECIFIED
:DEGREES
632
root 24.7179 15.5163 -6.4735 195.499 2.68941 179.014
lowerback -11.7595 -1.74153 -9.03142
upperback -5.46239 -0.598791 -1.30383
thorax 0.949282 0.142699 3.64341
lowerneck -20.0149 5.85249 8.98413
upperneck 30.2617 7.77307 -2.03913
head 14.143 4.68068 -0.791714
rclavicle -5.61567e-015 -7.15625e-015
rhumerus -38.8173 0.300333 -80.0335
rradius 30.8685
rwrist -5.8646
rhand -13.6932 -17.7081
rfingers 7.12502
rthumb 12.4249 -47.3188
lclavicle -5.61567e-015 -7.15625e-015
lhumerus -27.1794 -7.97693 82.5105
lradius 28.4261
lwrist 41.5263
lhand -20.4144 -6.70667
lfingers 7.12502
lthumb 5.93973 23.1901
rfemur -48.0239 5.3091 20.4501
rtibia 61.3037
rfoot -11.9718 -12.2396
rtoes -17.8963
lfemur -27.3312 -10.0864 -25.2423
ltibia 31.5217
lfoot -14.5133 2.27422
ltoes -17.7153
633
root 24.7145 15.5278 -6.59083 195.499 2.4087 179.106
lowerback -11.7498 -1.82708 -8.92247
upperback -5.40124 -0.745083 -1.12005
thorax 1.02773 0.0567799 3.75702
lowerneck -20.2018 5.89001 9.12306
upperneck 30.4153 7.86846 -2.31995
head 14.2785 4.69811 -0.89998
rclavicle -9.81499e-016 9.54166e-015
rhumerus -38.7305 0.144623 -79.8204
rradius 31.3913
rwrist -6.1377
rhand -13.7436 -17.6747
rfingers 7.12502
rthumb 12.3763 -47.2883
lclavicle -9.81499e-016 9.54166e-015
lhumerus -27.0712 -7.85142 82.6958
lradius 28.661
lwrist 41.7356
lhand -20.3507 -6.66664
lfingers 7.12502
lthumb 6.00123 23.2284
rfemur -48.4094 5.50436 20.3262
rtibia 59.9086
rfoot -12.1958 -13.0209
rtoes -16.8501
lfemur -26.622 -10.1861 -25.2344
ltibia 31.133
lfoot -14.6448 2.16867
ltoes -17.8934
634
root 24.7124 15.5403 -6.70669 195.507 2.10055 179.191
lowerback -11.7304 -1.91983 -8.81914
upperback -5.33221 -0.901561 -0.938539
thorax 1.11092 -0.0347822 3.86985
lowerneck -20.3864 5.94373 9.21867
upperneck 30.5235 7.97211 -2.53513
head 14.3898 4.71998 -0.97495
rclavicle -3.36692e-015 -9.54166e-015
rhumerus -38.5894 0.0506836 -79.6596
rradius 31.8512
rwrist -6.4241
rhand -13.8189 -17.5731
rfingers 7.12502
rthumb 12.3037 -47.1911
lclavicle -3.36692e-015 -9.54166e-015
lhumerus -26.9528 -7.74963 82.8693
lradius 28.9104
lwrist 41.9261
lhand -20.2678 -6.63048
lfingers 7.12502
lthumb 6.08132 23.2622
rfemur -48.7838 5.71922 20.1732
rtibia 58.456
rfoot -12.3214 -13.7427
rtoes -15.784
lfemur -25.9009 -10.2876 -25.2152
ltibia 30.6661
lfoot -14.7293 2.00918
ltoes -18.0398
635
root 24.7116 15.5531 -6.82066 195.528 1.76237 179.252
lowerback -11.6645 -2.02504 -8.73119
upperback -5.29753 -1.0748 -0.764412
thorax 1.13549 -0.12895 3.98158
lowerneck -20.5051 5.99649 9.27001
upperneck 30.5993 8.07341 -2.67969
head 14.467 4.74676 -1.01727
rclavicle -8.01351e-016 2.06736e-014
rhumerus -38.4709 0.0314836 -79.5533
rradius 32.2733
rwrist -6.75291
rhand -13.908 -17.5086
rfingers 7.12502
rthumb 12.2178 -47.1317
lclavicle -8.01351e-016 2.06736e-014
lhumerus -26.8972 -7.68206 83.0371
lradius 29.1738
lwrist 42.0975
lhand -20.1705 -6.60913
lfingers 7.12502
lthumb 6.1752 23.2809
rfemur -49.1569 5.94992 19.9684
rtibia 56.9451
rfoot -12.3202 -14.3917
rtoes -14.8649
lfemur -25.1965 -10.3945 -25.1997
ltibia 30.1653
lfoot -14.789 1.7952
ltoes -18.127
636
root 24.7124 15.5642 -6.92891 195.568 1.39164 179.305
lowerback -11.54 -2.13583 -8.65452
upperback -5.28319 -1.25928 -0.593829
thorax 1.10889 -0.225051 4.09524
lowerneck -20.5879 6.05692 9.29929
upperneck 30.6358 8.17641 -2.77589
head 14.5157 4.77753 -1.03795
rclavicle -1.00635e-015 8.74653e-015
rhumerus -38.3466 -0.0793108 -79.4336
rradius 32.6566
rwrist -6.95372
rhand -13.9799 -17.3975
rfingers 7.12502
rthumb 12.1485 -47.0248
lclavicle -1.00635e-015 8.74653e-015
lhumerus -26.8609 -7.65305 83.1945
lradius 29.4548
lwrist 42.2471
lhand -20.0649 -6.56396
lfingers 7.12502
lthumb 6.27713 23.323
rfemur -49.5606 6.22552 19.7169
rtibia 55.3774
rfoot -12.1797 -14.9763
rtoes -14.2538
lfemur -24.555 -10.4969 -25.162
ltibia 29.6562
lfoot -14.8155 1.51644
ltoes -18.1916
637
root 24.7148 15.5748 -7.03501 195.633 1.00021 179.349
lowerback -11.407 -2.25206 -8.5869
upperback -5.26322 -1.45072 -0.424025
thorax 1.08529 -0.325026 4.21271
lowerneck -20.7389 6.11829 9.33789
upperneck 30.6629 8.26442 -2.88556
head 14.5756 4.79663 -1.06712
rclavicle 1.23278e-014 2.3059e-014
rhumerus -38.1655 -0.119485 -79.3654
rradius 33.0008
rwrist -7.19398
rhand -14.0788 -17.2967
rfingers 7.12502
rthumb 12.0532 -46.9296
lclavicle 1.23278e-014 2.3059e-014
lhumerus -26.8 -7.64837 83.3385
lradius 29.7437
lwrist 42.3748
lhand -19.9481 -6.50235
lfingers 7.12502
lthumb 6.38993 23.3813
rfemur -49.9797 6.56311 19.3976
rtibia 53.7494
rfoot -11.9296 -15.4853
rtoes -13.9299
lfemur -23.9551 -10.5904 -25.1097
ltibia 29.1291
lfoot -14.8159 1.18987
ltoes -18.2563
638
root 24.7179 15.5855 -7.1425 195.707 0.592773 179.35
lowerback -11.2986 -2.37497 -8.54568
upperback -5.24695 -1.64225 -0.271919
thorax 1.07197 -0.423876 4.32637
lowerneck -20.8536 6.17207 9.39161
upperneck 30.6606 8.33789 -2.99978
head 14.6147 4.81065 -1.10514
rclavicle 1.23122e-014 2.14687e-014
rhumerus -37.9687 -0.264888 -79.2731
rradius 33.2471
rwrist -7.29409
rhand -14.1535 -17.177
rfingers 7.12502
rthumb 11.9811 -46.8141
lclavicle 1.23122e-014 2.14687e-014
lhumerus -26.7594 -7.69798 83.4778
lradius 30.0349
lwrist 42.4942
lhand -19.8206 -6.42896
lfingers 7.12502
lthumb 6.51305 23.4509
rfemur -50.3734 6.93222 18.974
rtibia 52.079
rfoot -11.6385 -15.8901
rtoes -13.8676
lfemur -23.3449 -10.6803 -25.0957
ltibia 28.5735
lfoot -14.8095 0.823612
ltoes -18.3378
639
root 24.7214 15.5966 -7.25261 195.787 0.174551 179.319
lowerback -11.2345 -2.49861 -8.51554
upperback -5.22189 -1.82696 -0.133589
thorax 1.09171 -0.520409 4.43198
lowerneck -20.961 6.21816 9.47025
upperneck 30.636 8.39485 -3.13754
head 14.6439 4.81624 -1.16086
rclavicle -9.15962e-015 -3.97569e-015
rhumerus -37.7691 -0.393331 -79.2001
rradius 33.4697
rwrist -7.38206
rhand -14.2285 -17.0556
rfingers 7.12502
rthumb 11.9087 -46.6969
lclavicle -9.15962e-015 -3.97569e-015
lhumerus -26.7224 -7.78685 83.6147
lradius 30.3272
lwrist 42.5917
lhand -19.6788 -6.33693
lfingers 7.12502
lthumb 6.64993 23.5387
rfemur -50.7254 7.33693 18.4539
rtibia 50.3882
rfoot -11.4044 -16.1688
rtoes -13.8797
lfemur -22.6911 -10.7584 -25.1141
ltibia 27.952
lfoot -14.7875 0.428898
ltoes -18.4946
640
root 24.7258 15.6076 -7.36422 195.883 -0.253418 179.265
lowerback -11.1897 -1.83565 -8.65755
upperback -5.20477 -2.19013 -0.0561802
thorax 1.06536 -1.2384 4.54297
lowerneck -21.0045 6.26352 9.52222
upperneck 30.5755 8.45651 -3.24759
head 14.6405 4.82574 -1.20239
rclavicle -9.83984e-015 -1.82882e-014
rhumerus -37.581 -0.653641 -79.0749
rradius 33.6343
rwrist -7.30309
rhand -14.2698 -16.8946
rfingers 7.12502
rthumb 11.869 -46.5382
lclavicle -9.83984e-015 -1.82882e-014
lhumerus -26.7125 -7.90259 83.7545
lradius 30.6188
lwrist 42.6608
lhand -19.5066 -6.27575
lfingers 7.12502
lthumb 6.81611 23.5945
rfemur -51.0606 7.80558 17.8335
rtibia 48.6969
rfoot -11.2542 -16.3392
rtoes -13.9009
lfemur -22.0239 -10.8225 -25.1461
ltibia 27.2839
lfoot -14.7511 -0.00216246
ltoes -18.6995
641
root 24.7307 15.6186 -7.47961 195.973 -0.679965 179.176
lowerback -11.171 -1.96728 -8.66468
upperback -5.2035 -2.36079 0.0669275
thorax 1.08615 -1.32007 4.65473
lowerneck -21.0134 6.29475 9.56601
upperneck 30.5164 8.50576 -3.35051
head 14.6283 4.83234 -1.24288
rclavicle -1.07266e-014 -5.56597e-015
rhumerus -37.435 -0.910564 -78.9507
rradius 33.7584
rwrist -7.20255
rhand -14.3102 -16.7288
rfingers 7.12502
rthumb 11.83 -46.3747
lclavicle -1.07266e-014 -5.56597e-015
lhumerus -26.75 -8.04842 83.9013
lradius 30.9025
lwrist 42.6956
lhand -19.3106 -6.23278
lfingers 7.12502
lthumb 7.00535 23.6313
rfemur -51.3492 8.33981 17.0947
rtibia 47.025
rfoot -11.215 -16.4022
rtoes -13.81
lfemur -21.2951 -10.8689 -25.2185
ltibia 26.5559
lfoot -14.7023 -0.455391
ltoes -18.9493
